<?xml version="1.0" encoding="utf-8" standalone="no"?>
<!DOCTYPE svg PUBLIC "-//W3C//DTD SVG 1.1//EN"
  "http://www.w3.org/Graphics/SVG/1.1/DTD/svg11.dtd">
<svg xmlns:xlink="http://www.w3.org/1999/xlink" width="720pt" height="720pt" viewBox="0 0 720 720" xmlns="http://www.w3.org/2000/svg" version="1.1">
 <metadata>
  <rdf:RDF xmlns:dc="http://purl.org/dc/elements/1.1/" xmlns:cc="http://creativecommons.org/ns#" xmlns:rdf="http://www.w3.org/1999/02/22-rdf-syntax-ns#">
   <cc:Work>
    <dc:type rdf:resource="http://purl.org/dc/dcmitype/StillImage"/>
    <dc:date>2022-11-07T21:15:10.986259</dc:date>
    <dc:format>image/svg+xml</dc:format>
    <dc:creator>
     <cc:Agent>
      <dc:title>Matplotlib v3.6.0, https://matplotlib.org/</dc:title>
     </cc:Agent>
    </dc:creator>
   </cc:Work>
  </rdf:RDF>
 </metadata>
 <defs>
  <style type="text/css">*{stroke-linejoin: round; stroke-linecap: butt}</style>
 </defs>
 <g id="figure_1">
  <g id="patch_1">
   <path d="M 0 720 
L 720 720 
L 720 0 
L 0 0 
z
" style="fill: #ffffff"/>
  </g>
  <g id="axes_1">
   <g id="patch_2">
    <path d="M 40.52 326.32 
L 354.6 326.32 
L 354.6 10.8 
L 40.52 10.8 
z
" style="fill: #ffffff"/>
   </g>
   <g id="matplotlib.axis_1">
    <g id="xtick_1">
     <g id="line2d_1">
      <defs>
       <path id="mc439252ebd" d="M 0 0 
L 0 3.5 
" style="stroke: #000000; stroke-width: 0.8"/>
      </defs>
      <g>
       <use xlink:href="#mc439252ebd" x="54.796364" y="326.32" style="stroke: #000000; stroke-width: 0.8"/>
      </g>
     </g>
     <g id="text_1">
      <!-- 200 -->
      <g transform="translate(47.296364 340.195) scale(0.1 -0.1)">
       <defs>
        <path id="SimHei-32" d="M 300 250 
Q 325 625 650 925 
Q 975 1225 1475 1862 
Q 1975 2500 2125 2850 
Q 2275 3200 2237 3450 
Q 2200 3700 2000 3862 
Q 1800 4025 1537 4000 
Q 1275 3975 1037 3800 
Q 800 3625 675 3275 
L 200 3350 
Q 400 3925 712 4187 
Q 1025 4450 1450 4475 
Q 1700 4500 1900 4462 
Q 2100 4425 2312 4287 
Q 2525 4150 2662 3875 
Q 2800 3600 2762 3212 
Q 2725 2825 2375 2287 
Q 2025 1750 1025 600 
L 2825 600 
L 2825 150 
L 300 150 
L 300 250 
z
" transform="scale(0.015625)"/>
        <path id="SimHei-30" d="M 225 2537 
Q 250 3200 412 3587 
Q 575 3975 875 4225 
Q 1175 4475 1612 4475 
Q 2050 4475 2375 4112 
Q 2700 3750 2800 3200 
Q 2900 2650 2862 1937 
Q 2825 1225 2612 775 
Q 2400 325 1975 150 
Q 1550 -25 1125 187 
Q 700 400 525 750 
Q 350 1100 275 1487 
Q 200 1875 225 2537 
z
M 750 2687 
Q 675 2000 800 1462 
Q 925 925 1212 700 
Q 1500 475 1800 612 
Q 2100 750 2237 1162 
Q 2375 1575 2375 2062 
Q 2375 2550 2337 2950 
Q 2300 3350 2112 3675 
Q 1925 4000 1612 4012 
Q 1300 4025 1062 3700 
Q 825 3375 750 2687 
z
" transform="scale(0.015625)"/>
       </defs>
       <use xlink:href="#SimHei-32"/>
       <use xlink:href="#SimHei-30" x="50"/>
       <use xlink:href="#SimHei-30" x="100"/>
      </g>
     </g>
    </g>
    <g id="xtick_2">
     <g id="line2d_2">
      <g>
       <use xlink:href="#mc439252ebd" x="112.478641" y="326.32" style="stroke: #000000; stroke-width: 0.8"/>
      </g>
     </g>
     <g id="text_2">
      <!-- 220 -->
      <g transform="translate(104.978641 340.195) scale(0.1 -0.1)">
       <use xlink:href="#SimHei-32"/>
       <use xlink:href="#SimHei-32" x="50"/>
       <use xlink:href="#SimHei-30" x="100"/>
      </g>
     </g>
    </g>
    <g id="xtick_3">
     <g id="line2d_3">
      <g>
       <use xlink:href="#mc439252ebd" x="170.160918" y="326.32" style="stroke: #000000; stroke-width: 0.8"/>
      </g>
     </g>
     <g id="text_3">
      <!-- 240 -->
      <g transform="translate(162.660918 340.195) scale(0.1 -0.1)">
       <defs>
        <path id="SimHei-34" d="M 2000 1100 
L 75 1100 
L 75 1525 
L 2100 4450 
L 2475 4450 
L 2475 1525 
L 3075 1525 
L 3075 1100 
L 2475 1100 
L 2475 150 
L 2000 150 
L 2000 1100 
z
M 2000 1525 
L 2000 3500 
L 600 1525 
L 2000 1525 
z
" transform="scale(0.015625)"/>
       </defs>
       <use xlink:href="#SimHei-32"/>
       <use xlink:href="#SimHei-34" x="50"/>
       <use xlink:href="#SimHei-30" x="100"/>
      </g>
     </g>
    </g>
    <g id="xtick_4">
     <g id="line2d_4">
      <g>
       <use xlink:href="#mc439252ebd" x="227.843196" y="326.32" style="stroke: #000000; stroke-width: 0.8"/>
      </g>
     </g>
     <g id="text_4">
      <!-- 260 -->
      <g transform="translate(220.343196 340.195) scale(0.1 -0.1)">
       <defs>
        <path id="SimHei-36" d="M 250 1612 
Q 275 1975 387 2225 
Q 500 2475 725 2850 
L 1750 4450 
L 2325 4450 
L 1275 2800 
Q 1950 2975 2350 2750 
Q 2750 2525 2887 2237 
Q 3025 1950 3037 1612 
Q 3050 1275 2937 950 
Q 2825 625 2537 362 
Q 2250 100 1737 75 
Q 1225 50 862 262 
Q 500 475 362 862 
Q 225 1250 250 1612 
z
M 1025 787 
Q 1250 550 1625 525 
Q 2000 500 2250 775 
Q 2500 1050 2500 1575 
Q 2500 2100 2187 2300 
Q 1875 2500 1487 2450 
Q 1100 2400 925 2075 
Q 750 1750 775 1387 
Q 800 1025 1025 787 
z
" transform="scale(0.015625)"/>
       </defs>
       <use xlink:href="#SimHei-32"/>
       <use xlink:href="#SimHei-36" x="50"/>
       <use xlink:href="#SimHei-30" x="100"/>
      </g>
     </g>
    </g>
    <g id="xtick_5">
     <g id="line2d_5">
      <g>
       <use xlink:href="#mc439252ebd" x="285.525473" y="326.32" style="stroke: #000000; stroke-width: 0.8"/>
      </g>
     </g>
     <g id="text_5">
      <!-- 280 -->
      <g transform="translate(278.025473 340.195) scale(0.1 -0.1)">
       <defs>
        <path id="SimHei-38" d="M 175 1375 
Q 175 1675 325 1962 
Q 475 2250 825 2425 
Q 525 2600 425 2812 
Q 325 3025 312 3300 
Q 300 3575 387 3775 
Q 475 3975 650 4150 
Q 825 4325 1037 4387 
Q 1250 4450 1500 4450 
Q 1750 4450 1950 4400 
Q 2150 4350 2375 4187 
Q 2600 4025 2700 3725 
Q 2800 3425 2687 3025 
Q 2575 2625 2100 2400 
Q 2525 2275 2700 2012 
Q 2875 1750 2875 1375 
Q 2875 1000 2762 775 
Q 2650 550 2512 400 
Q 2375 250 2137 162 
Q 1900 75 1537 75 
Q 1175 75 912 162 
Q 650 250 475 425 
Q 300 600 237 837 
Q 175 1075 175 1375 
z
M 687 1400 
Q 675 1100 787 875 
Q 900 650 1200 587 
Q 1500 525 1825 600 
Q 2150 675 2275 950 
Q 2400 1225 2362 1500 
Q 2325 1775 2050 1962 
Q 1775 2150 1450 2125 
Q 1125 2100 912 1900 
Q 700 1700 687 1400 
z
M 775 3350 
Q 775 3100 950 2875 
Q 1125 2650 1500 2650 
Q 1875 2650 2062 2875 
Q 2250 3100 2237 3412 
Q 2225 3725 2012 3875 
Q 1800 4025 1437 4000 
Q 1075 3975 925 3787 
Q 775 3600 775 3350 
z
" transform="scale(0.015625)"/>
       </defs>
       <use xlink:href="#SimHei-32"/>
       <use xlink:href="#SimHei-38" x="50"/>
       <use xlink:href="#SimHei-30" x="100"/>
      </g>
     </g>
    </g>
    <g id="xtick_6">
     <g id="line2d_6">
      <g>
       <use xlink:href="#mc439252ebd" x="343.20775" y="326.32" style="stroke: #000000; stroke-width: 0.8"/>
      </g>
     </g>
     <g id="text_6">
      <!-- 300 -->
      <g transform="translate(335.70775 340.195) scale(0.1 -0.1)">
       <defs>
        <path id="SimHei-33" d="M 250 1225 
L 700 1300 
Q 800 975 1025 762 
Q 1250 550 1587 562 
Q 1925 575 2125 837 
Q 2325 1100 2300 1437 
Q 2275 1775 2037 1962 
Q 1800 2150 1275 2225 
L 1275 2550 
Q 1800 2600 2037 2825 
Q 2275 3050 2250 3412 
Q 2225 3775 1925 3937 
Q 1625 4100 1287 3975 
Q 950 3850 750 3275 
L 300 3350 
Q 450 3800 712 4100 
Q 975 4400 1425 4450 
Q 1875 4500 2212 4337 
Q 2550 4175 2687 3837 
Q 2825 3500 2725 3100 
Q 2625 2700 2150 2400 
Q 2500 2250 2687 1950 
Q 2875 1650 2812 1162 
Q 2750 675 2375 375 
Q 2000 75 1525 87 
Q 1050 100 700 387 
Q 350 675 250 1225 
z
" transform="scale(0.015625)"/>
       </defs>
       <use xlink:href="#SimHei-33"/>
       <use xlink:href="#SimHei-30" x="50"/>
       <use xlink:href="#SimHei-30" x="100"/>
      </g>
     </g>
    </g>
    <g id="text_7">
     <!-- Preference -->
     <g transform="translate(172.56 352.32) scale(0.1 -0.1)">
      <defs>
       <path id="SimHei-50" d="M 2950 3100 
Q 2950 2500 2600 2150 
Q 2250 1800 1625 1800 
L 900 1800 
L 900 125 
L 325 125 
L 325 4400 
L 1625 4400 
Q 2250 4400 2600 4050 
Q 2950 3700 2950 3100 
z
M 2375 3100 
Q 2375 3575 2150 3750 
Q 1925 3925 1475 3925 
L 900 3925 
L 900 2275 
L 1475 2275 
Q 1925 2275 2150 2450 
Q 2375 2625 2375 3100 
z
" transform="scale(0.015625)"/>
       <path id="SimHei-72" d="M 2500 2425 
Q 2025 2500 1700 2287 
Q 1375 2075 1150 1550 
L 1150 125 
L 650 125 
L 650 2925 
L 1150 2925 
L 1150 2200 
Q 1375 2600 1712 2787 
Q 2050 2975 2500 2975 
L 2500 2425 
z
" transform="scale(0.015625)"/>
       <path id="SimHei-65" d="M 2850 1075 
Q 2800 625 2450 350 
Q 2100 75 1625 75 
Q 1025 75 637 462 
Q 250 850 250 1525 
Q 250 2200 637 2587 
Q 1025 2975 1625 2975 
Q 2150 2975 2487 2637 
Q 2825 2300 2825 1525 
L 800 1525 
Q 800 975 1037 750 
Q 1275 525 1625 525 
Q 1900 525 2075 662 
Q 2250 800 2300 1075 
L 2850 1075 
z
M 2250 1925 
Q 2200 2275 2025 2412 
Q 1850 2550 1575 2550 
Q 1325 2550 1125 2412 
Q 925 2275 825 1925 
L 2250 1925 
z
" transform="scale(0.015625)"/>
       <path id="SimHei-66" d="M 2850 3825 
Q 2725 3900 2550 3950 
Q 2375 4000 2100 4000 
Q 1825 4000 1725 3862 
Q 1625 3725 1625 3525 
L 1625 2925 
L 2650 2925 
L 2650 2525 
L 1625 2525 
L 1625 125 
L 1125 125 
L 1125 2525 
L 275 2525 
L 275 2925 
L 1125 2925 
L 1125 3500 
Q 1125 3950 1400 4200 
Q 1675 4450 2125 4450 
Q 2400 4450 2562 4412 
Q 2725 4375 2850 4325 
L 2850 3825 
z
" transform="scale(0.015625)"/>
       <path id="SimHei-6e" d="M 2800 125 
L 2300 125 
L 2300 1925 
Q 2300 2225 2150 2400 
Q 2000 2575 1750 2575 
Q 1425 2575 1137 2237 
Q 850 1900 850 1400 
L 850 125 
L 350 125 
L 350 2925 
L 850 2925 
L 850 2400 
Q 1050 2675 1287 2825 
Q 1525 2975 1900 2975 
Q 2350 2975 2575 2725 
Q 2800 2475 2800 2100 
L 2800 125 
z
" transform="scale(0.015625)"/>
       <path id="SimHei-63" d="M 2850 1250 
Q 2850 725 2487 400 
Q 2125 75 1575 75 
Q 1025 75 625 462 
Q 225 850 225 1525 
Q 225 2200 625 2587 
Q 1025 2975 1575 2975 
Q 2125 2975 2450 2687 
Q 2775 2400 2775 2000 
L 2225 2000 
Q 2200 2300 2012 2412 
Q 1825 2525 1575 2525 
Q 1275 2525 1025 2287 
Q 775 2050 775 1525 
Q 775 1000 1025 762 
Q 1275 525 1575 525 
Q 1900 525 2100 700 
Q 2300 875 2300 1250 
L 2850 1250 
z
" transform="scale(0.015625)"/>
      </defs>
      <use xlink:href="#SimHei-50"/>
      <use xlink:href="#SimHei-72" x="50"/>
      <use xlink:href="#SimHei-65" x="100"/>
      <use xlink:href="#SimHei-66" x="150"/>
      <use xlink:href="#SimHei-65" x="200"/>
      <use xlink:href="#SimHei-72" x="250"/>
      <use xlink:href="#SimHei-65" x="300"/>
      <use xlink:href="#SimHei-6e" x="350"/>
      <use xlink:href="#SimHei-63" x="400"/>
      <use xlink:href="#SimHei-65" x="450"/>
     </g>
    </g>
   </g>
   <g id="matplotlib.axis_2">
    <g id="ytick_1">
     <g id="line2d_7">
      <defs>
       <path id="m0a31269fa7" d="M 0 0 
L -3.5 0 
" style="stroke: #000000; stroke-width: 0.8"/>
      </defs>
      <g>
       <use xlink:href="#m0a31269fa7" x="40.52" y="274.564743" style="stroke: #000000; stroke-width: 0.8"/>
      </g>
     </g>
     <g id="text_8">
      <!-- 15 -->
      <g transform="translate(23.52 278.002243) scale(0.1 -0.1)">
       <defs>
        <path id="SimHei-31" d="M 1400 3600 
Q 1075 3275 575 2975 
L 575 3450 
Q 1200 3875 1600 4450 
L 1900 4450 
L 1900 150 
L 1400 150 
L 1400 3600 
z
" transform="scale(0.015625)"/>
        <path id="SimHei-35" d="M 550 1325 
Q 725 650 1150 575 
Q 1575 500 1837 662 
Q 2100 825 2212 1087 
Q 2325 1350 2312 1675 
Q 2300 2000 2137 2225 
Q 1975 2450 1725 2525 
Q 1475 2600 1162 2525 
Q 850 2450 650 2175 
L 225 2225 
Q 275 2375 700 4375 
L 2675 4375 
L 2675 3925 
L 1075 3925 
Q 950 3250 825 2850 
Q 1200 3025 1525 3012 
Q 1850 3000 2150 2862 
Q 2450 2725 2587 2487 
Q 2725 2250 2787 2012 
Q 2850 1775 2837 1500 
Q 2825 1225 2725 937 
Q 2625 650 2425 462 
Q 2225 275 1937 162 
Q 1650 50 1275 75 
Q 900 100 562 350 
Q 225 600 100 1200 
L 550 1325 
z
" transform="scale(0.015625)"/>
       </defs>
       <use xlink:href="#SimHei-31"/>
       <use xlink:href="#SimHei-35" x="50"/>
      </g>
     </g>
    </g>
    <g id="ytick_2">
     <g id="line2d_8">
      <g>
       <use xlink:href="#m0a31269fa7" x="40.52" y="212.209012" style="stroke: #000000; stroke-width: 0.8"/>
      </g>
     </g>
     <g id="text_9">
      <!-- 20 -->
      <g transform="translate(23.52 215.646512) scale(0.1 -0.1)">
       <use xlink:href="#SimHei-32"/>
       <use xlink:href="#SimHei-30" x="50"/>
      </g>
     </g>
    </g>
    <g id="ytick_3">
     <g id="line2d_9">
      <g>
       <use xlink:href="#m0a31269fa7" x="40.52" y="149.853281" style="stroke: #000000; stroke-width: 0.8"/>
      </g>
     </g>
     <g id="text_10">
      <!-- 25 -->
      <g transform="translate(23.52 153.290781) scale(0.1 -0.1)">
       <use xlink:href="#SimHei-32"/>
       <use xlink:href="#SimHei-35" x="50"/>
      </g>
     </g>
    </g>
    <g id="ytick_4">
     <g id="line2d_10">
      <g>
       <use xlink:href="#m0a31269fa7" x="40.52" y="87.497549" style="stroke: #000000; stroke-width: 0.8"/>
      </g>
     </g>
     <g id="text_11">
      <!-- 30 -->
      <g transform="translate(23.52 90.935049) scale(0.1 -0.1)">
       <use xlink:href="#SimHei-33"/>
       <use xlink:href="#SimHei-30" x="50"/>
      </g>
     </g>
    </g>
    <g id="ytick_5">
     <g id="line2d_11">
      <g>
       <use xlink:href="#m0a31269fa7" x="40.52" y="25.141818" style="stroke: #000000; stroke-width: 0.8"/>
      </g>
     </g>
     <g id="text_12">
      <!-- 35 -->
      <g transform="translate(23.52 28.579318) scale(0.1 -0.1)">
       <use xlink:href="#SimHei-33"/>
       <use xlink:href="#SimHei-35" x="50"/>
      </g>
     </g>
    </g>
    <g id="text_13">
     <!-- Number of clusters -->
     <g transform="translate(18.27 213.56) rotate(-90) scale(0.1 -0.1)">
      <defs>
       <path id="SimHei-4e" d="M 2850 125 
L 2225 125 
L 850 3225 
L 825 3225 
L 825 125 
L 250 125 
L 250 4400 
L 875 4400 
L 2250 1300 
L 2275 1300 
L 2275 4400 
L 2850 4400 
L 2850 125 
z
" transform="scale(0.015625)"/>
       <path id="SimHei-75" d="M 2800 125 
L 2300 125 
L 2300 650 
Q 2100 375 1862 225 
Q 1625 75 1250 75 
Q 800 75 575 325 
Q 350 575 350 950 
L 350 2925 
L 850 2925 
L 850 1125 
Q 850 825 1000 650 
Q 1150 475 1400 475 
Q 1725 475 2012 812 
Q 2300 1150 2300 1650 
L 2300 2925 
L 2800 2925 
L 2800 125 
z
" transform="scale(0.015625)"/>
       <path id="SimHei-6d" d="M 3050 125 
L 2550 125 
L 2550 2150 
Q 2550 2300 2500 2400 
Q 2450 2500 2300 2500 
Q 2125 2500 1975 2312 
Q 1825 2125 1825 1825 
L 1825 125 
L 1325 125 
L 1325 2150 
Q 1325 2300 1275 2400 
Q 1225 2500 1075 2500 
Q 900 2500 750 2312 
Q 600 2125 600 1825 
L 600 125 
L 100 125 
L 100 2925 
L 600 2925 
L 600 2550 
Q 725 2750 900 2862 
Q 1075 2975 1275 2975 
Q 1475 2975 1612 2862 
Q 1750 2750 1800 2550 
Q 1925 2750 2087 2862 
Q 2250 2975 2450 2975 
Q 2750 2975 2900 2812 
Q 3050 2650 3050 2350 
L 3050 125 
z
" transform="scale(0.015625)"/>
       <path id="SimHei-62" d="M 2825 1525 
Q 2825 800 2475 437 
Q 2125 75 1625 75 
Q 1350 75 1150 175 
Q 950 275 800 500 
L 800 125 
L 300 125 
L 300 4400 
L 800 4400 
L 800 2550 
Q 950 2775 1150 2887 
Q 1350 3000 1625 3000 
Q 2125 3000 2475 2625 
Q 2825 2250 2825 1525 
z
M 2275 1525 
Q 2275 2000 2087 2275 
Q 1900 2550 1525 2550 
Q 1225 2550 1012 2275 
Q 800 2000 800 1525 
Q 800 1050 1012 787 
Q 1225 525 1525 525 
Q 1900 525 2087 787 
Q 2275 1050 2275 1525 
z
" transform="scale(0.015625)"/>
       <path id="SimHei-20" transform="scale(0.015625)"/>
       <path id="SimHei-6f" d="M 2925 1525 
Q 2925 875 2525 475 
Q 2125 75 1575 75 
Q 1025 75 625 475 
Q 225 875 225 1525 
Q 225 2175 625 2575 
Q 1025 2975 1575 2975 
Q 2125 2975 2525 2575 
Q 2925 2175 2925 1525 
z
M 2375 1525 
Q 2375 2025 2125 2275 
Q 1875 2525 1575 2525 
Q 1275 2525 1025 2275 
Q 775 2025 775 1525 
Q 775 1025 1025 775 
Q 1275 525 1575 525 
Q 1875 525 2125 775 
Q 2375 1025 2375 1525 
z
" transform="scale(0.015625)"/>
       <path id="SimHei-6c" d="M 1825 125 
L 1325 125 
L 1325 4400 
L 1825 4400 
L 1825 125 
z
" transform="scale(0.015625)"/>
       <path id="SimHei-73" d="M 2750 900 
Q 2750 500 2437 287 
Q 2125 75 1650 75 
Q 1050 75 725 312 
Q 400 550 400 1000 
L 900 1000 
Q 900 700 1112 600 
Q 1325 500 1625 500 
Q 1925 500 2075 612 
Q 2225 725 2225 900 
Q 2225 1025 2100 1150 
Q 1975 1275 1475 1350 
Q 900 1425 687 1637 
Q 475 1850 475 2200 
Q 475 2500 762 2737 
Q 1050 2975 1600 2975 
Q 2100 2975 2387 2750 
Q 2675 2525 2675 2150 
L 2175 2150 
Q 2175 2375 2012 2462 
Q 1850 2550 1600 2550 
Q 1275 2550 1137 2437 
Q 1000 2325 1000 2175 
Q 1000 2000 1125 1900 
Q 1250 1800 1650 1750 
Q 2300 1650 2525 1437 
Q 2750 1225 2750 900 
z
" transform="scale(0.015625)"/>
       <path id="SimHei-74" d="M 2750 200 
Q 2625 150 2462 112 
Q 2300 75 2025 75 
Q 1575 75 1300 325 
Q 1025 575 1025 1025 
L 1025 2525 
L 175 2525 
L 175 2925 
L 1025 2925 
L 1025 3900 
L 1525 3900 
L 1525 2925 
L 2550 2925 
L 2550 2525 
L 1525 2525 
L 1525 1000 
Q 1525 800 1625 662 
Q 1725 525 2000 525 
Q 2275 525 2450 575 
Q 2625 625 2750 700 
L 2750 200 
z
" transform="scale(0.015625)"/>
      </defs>
      <use xlink:href="#SimHei-4e"/>
      <use xlink:href="#SimHei-75" x="50"/>
      <use xlink:href="#SimHei-6d" x="100"/>
      <use xlink:href="#SimHei-62" x="150"/>
      <use xlink:href="#SimHei-65" x="200"/>
      <use xlink:href="#SimHei-72" x="250"/>
      <use xlink:href="#SimHei-20" x="300"/>
      <use xlink:href="#SimHei-6f" x="350"/>
      <use xlink:href="#SimHei-66" x="400"/>
      <use xlink:href="#SimHei-20" x="450"/>
      <use xlink:href="#SimHei-63" x="500"/>
      <use xlink:href="#SimHei-6c" x="550"/>
      <use xlink:href="#SimHei-75" x="600"/>
      <use xlink:href="#SimHei-73" x="650"/>
      <use xlink:href="#SimHei-74" x="700"/>
      <use xlink:href="#SimHei-65" x="750"/>
      <use xlink:href="#SimHei-72" x="800"/>
      <use xlink:href="#SimHei-73" x="850"/>
     </g>
    </g>
   </g>
   <g id="line2d_12">
    <path d="M 54.796364 37.612964 
L 57.680478 25.141818 
L 60.564591 37.612964 
L 63.448705 37.612964 
L 66.332819 50.084111 
L 69.216933 50.084111 
L 72.101047 50.084111 
L 74.985161 37.612964 
L 77.869275 62.555257 
L 80.753388 75.026403 
L 83.637502 75.026403 
L 86.521616 87.497549 
L 89.40573 87.497549 
L 92.289844 87.497549 
L 95.173958 99.968696 
L 98.058072 99.968696 
L 100.942185 99.968696 
L 103.826299 99.968696 
L 106.710413 99.968696 
L 109.594527 99.968696 
L 112.478641 124.910988 
L 115.362755 137.382134 
L 118.246869 137.382134 
L 121.130983 137.382134 
L 124.015096 137.382134 
L 126.89921 137.382134 
L 129.783324 137.382134 
L 132.667438 137.382134 
L 135.551552 137.382134 
L 138.435666 137.382134 
L 141.31978 137.382134 
L 144.203893 137.382134 
L 147.088007 137.382134 
L 149.972121 137.382134 
L 152.856235 137.382134 
L 155.740349 149.853281 
L 158.624463 162.324427 
L 161.508577 162.324427 
L 164.392691 162.324427 
L 167.276804 162.324427 
L 170.160918 162.324427 
L 173.045032 162.324427 
L 175.929146 162.324427 
L 178.81326 162.324427 
L 181.697374 187.266719 
L 184.581488 199.737866 
L 187.465601 199.737866 
L 190.349715 212.209012 
L 193.233829 212.209012 
L 196.117943 212.209012 
L 199.002057 212.209012 
L 201.886171 224.680158 
L 204.770285 237.151304 
L 207.654399 249.622451 
L 210.538512 237.151304 
L 213.422626 249.622451 
L 216.30674 249.622451 
L 219.190854 249.622451 
L 222.074968 249.622451 
L 224.959082 249.622451 
L 227.843196 237.151304 
L 230.727309 249.622451 
L 233.611423 249.622451 
L 236.495537 249.622451 
L 239.379651 249.622451 
L 242.263765 262.093597 
L 245.147879 262.093597 
L 248.031993 262.093597 
L 250.916107 262.093597 
L 253.80022 262.093597 
L 256.684334 274.564743 
L 259.568448 274.564743 
L 262.452562 274.564743 
L 265.336676 274.564743 
L 268.22079 274.564743 
L 271.104904 274.564743 
L 273.989017 274.564743 
L 276.873131 274.564743 
L 279.757245 299.507036 
L 282.641359 287.035889 
L 285.525473 287.035889 
L 288.409587 287.035889 
L 291.293701 311.978182 
L 294.177815 299.507036 
L 297.061928 311.978182 
L 299.946042 299.507036 
L 302.830156 299.507036 
L 305.71427 299.507036 
L 308.598384 299.507036 
L 311.482498 299.507036 
L 314.366612 299.507036 
L 317.250725 299.507036 
L 320.134839 299.507036 
L 323.018953 299.507036 
L 325.903067 299.507036 
L 328.787181 299.507036 
L 331.671295 299.507036 
L 334.555409 299.507036 
L 337.439522 299.507036 
L 340.323636 299.507036 
" clip-path="url(#pe2101c0dee)" style="fill: none; stroke: #9d18d2; stroke-width: 1.5; stroke-linecap: square"/>
   </g>
   <g id="patch_3">
    <path d="M 40.52 326.32 
L 40.52 10.8 
" style="fill: none; stroke: #000000; stroke-width: 0.8; stroke-linejoin: miter; stroke-linecap: square"/>
   </g>
   <g id="patch_4">
    <path d="M 354.6 326.32 
L 354.6 10.8 
" style="fill: none; stroke: #000000; stroke-width: 0.8; stroke-linejoin: miter; stroke-linecap: square"/>
   </g>
   <g id="patch_5">
    <path d="M 40.52 326.32 
L 354.6 326.32 
" style="fill: none; stroke: #000000; stroke-width: 0.8; stroke-linejoin: miter; stroke-linecap: square"/>
   </g>
   <g id="patch_6">
    <path d="M 40.52 10.8 
L 354.6 10.8 
" style="fill: none; stroke: #000000; stroke-width: 0.8; stroke-linejoin: miter; stroke-linecap: square"/>
   </g>
   <g id="legend_1">
    <g id="patch_7">
     <path d="M 260.6 32.05 
L 347.6 32.05 
Q 349.6 32.05 349.6 30.05 
L 349.6 17.8 
Q 349.6 15.8 347.6 15.8 
L 260.6 15.8 
Q 258.6 15.8 258.6 17.8 
L 258.6 30.05 
Q 258.6 32.05 260.6 32.05 
z
" style="fill: #ffffff; opacity: 0.8; stroke: #cccccc; stroke-linejoin: miter"/>
    </g>
    <g id="line2d_13">
     <path d="M 262.6 23.3 
L 272.6 23.3 
L 282.6 23.3 
" style="fill: none; stroke: #9d18d2; stroke-width: 1.5; stroke-linecap: square"/>
    </g>
    <g id="text_14">
     <!-- Damping:0.6 -->
     <g transform="translate(290.6 26.8) scale(0.1 -0.1)">
      <defs>
       <path id="SimHei-44" d="M 2925 2250 
Q 2925 1100 2437 612 
Q 1950 125 1125 125 
L 275 125 
L 275 4400 
L 1125 4400 
Q 2050 4400 2487 3900 
Q 2925 3400 2925 2250 
z
M 2325 2250 
Q 2325 3175 2025 3550 
Q 1725 3925 1125 3925 
L 850 3925 
L 850 600 
L 1125 600 
Q 1725 600 2025 962 
Q 2325 1325 2325 2250 
z
" transform="scale(0.015625)"/>
       <path id="SimHei-61" d="M 2875 125 
L 2275 125 
Q 2225 175 2200 262 
Q 2175 350 2175 475 
Q 2000 275 1750 175 
Q 1500 75 1225 75 
Q 825 75 550 275 
Q 275 475 275 850 
Q 275 1225 525 1450 
Q 775 1675 1300 1750 
Q 1650 1800 1912 1875 
Q 2175 1950 2175 2075 
Q 2175 2225 2062 2375 
Q 1950 2525 1575 2525 
Q 1275 2525 1137 2412 
Q 1000 2300 950 2100 
L 400 2100 
Q 450 2500 762 2737 
Q 1075 2975 1575 2975 
Q 2125 2975 2400 2725 
Q 2675 2475 2675 2025 
L 2675 650 
Q 2675 500 2725 375 
Q 2775 250 2875 125 
z
M 2175 1050 
L 2175 1550 
Q 2025 1500 1887 1462 
Q 1750 1425 1425 1375 
Q 1050 1325 937 1200 
Q 825 1075 825 900 
Q 825 750 937 637 
Q 1050 525 1275 525 
Q 1500 525 1762 650 
Q 2025 775 2175 1050 
z
" transform="scale(0.015625)"/>
       <path id="SimHei-70" d="M 2825 1525 
Q 2825 800 2475 425 
Q 2125 50 1625 50 
Q 1350 50 1150 162 
Q 950 275 800 500 
L 800 -800 
L 300 -800 
L 300 2925 
L 800 2925 
L 800 2550 
Q 950 2775 1150 2875 
Q 1350 2975 1625 2975 
Q 2125 2975 2475 2612 
Q 2825 2250 2825 1525 
z
M 2275 1525 
Q 2275 2000 2087 2262 
Q 1900 2525 1525 2525 
Q 1225 2525 1012 2262 
Q 800 2000 800 1525 
Q 800 1050 1012 775 
Q 1225 500 1525 500 
Q 1900 500 2087 775 
Q 2275 1050 2275 1525 
z
" transform="scale(0.015625)"/>
       <path id="SimHei-69" d="M 1800 3725 
L 1300 3725 
L 1300 4375 
L 1800 4375 
L 1800 3725 
z
M 1800 125 
L 1300 125 
L 1300 2925 
L 1800 2925 
L 1800 125 
z
" transform="scale(0.015625)"/>
       <path id="SimHei-67" d="M 2975 2500 
Q 2800 2550 2637 2562 
Q 2475 2575 2300 2525 
Q 2375 2450 2425 2337 
Q 2475 2225 2475 2000 
Q 2475 1575 2187 1300 
Q 1900 1025 1475 1025 
Q 1375 1025 1212 1062 
Q 1050 1100 950 1150 
Q 875 1100 850 1050 
Q 825 1000 825 925 
Q 825 800 1000 737 
Q 1175 675 1625 675 
Q 2350 675 2612 475 
Q 2875 275 2875 -25 
Q 2875 -425 2487 -612 
Q 2100 -800 1575 -800 
Q 900 -800 575 -625 
Q 250 -450 250 -150 
Q 250 0 375 150 
Q 500 300 700 400 
Q 550 475 462 587 
Q 375 700 375 875 
Q 375 1025 487 1137 
Q 600 1250 750 1325 
Q 625 1450 550 1625 
Q 475 1800 475 2000 
Q 475 2425 762 2700 
Q 1050 2975 1475 2975 
Q 1700 2975 1862 2912 
Q 2025 2850 2150 2725 
Q 2350 2875 2550 2937 
Q 2750 3000 2975 2975 
L 2975 2500 
z
M 1975 2000 
Q 1975 2250 1850 2400 
Q 1725 2550 1475 2550 
Q 1225 2550 1100 2400 
Q 975 2250 975 2000 
Q 975 1750 1100 1600 
Q 1225 1450 1475 1450 
Q 1725 1450 1850 1600 
Q 1975 1750 1975 2000 
z
M 2400 -75 
Q 2400 25 2287 125 
Q 2175 225 1725 225 
Q 1625 225 1450 237 
Q 1275 250 1050 275 
Q 850 200 775 100 
Q 700 0 700 -100 
Q 700 -250 900 -350 
Q 1100 -450 1600 -450 
Q 2025 -450 2212 -337 
Q 2400 -225 2400 -75 
z
" transform="scale(0.015625)"/>
       <path id="SimHei-3a" d="M 1825 2425 
L 1250 2425 
L 1250 2975 
L 1825 2975 
L 1825 2425 
z
M 1825 125 
L 1250 125 
L 1250 675 
L 1825 675 
L 1825 125 
z
" transform="scale(0.015625)"/>
       <path id="SimHei-2e" d="M 1075 125 
L 500 125 
L 500 675 
L 1075 675 
L 1075 125 
z
" transform="scale(0.015625)"/>
      </defs>
      <use xlink:href="#SimHei-44"/>
      <use xlink:href="#SimHei-61" x="50"/>
      <use xlink:href="#SimHei-6d" x="100"/>
      <use xlink:href="#SimHei-70" x="150"/>
      <use xlink:href="#SimHei-69" x="200"/>
      <use xlink:href="#SimHei-6e" x="250"/>
      <use xlink:href="#SimHei-67" x="300"/>
      <use xlink:href="#SimHei-3a" x="350"/>
      <use xlink:href="#SimHei-30" x="400"/>
      <use xlink:href="#SimHei-2e" x="450"/>
      <use xlink:href="#SimHei-36" x="500"/>
     </g>
    </g>
   </g>
  </g>
  <g id="axes_2">
   <g id="patch_8">
    <path d="M 395.12 326.32 
L 709.2 326.32 
L 709.2 10.8 
L 395.12 10.8 
z
" style="fill: #ffffff"/>
   </g>
   <g id="matplotlib.axis_3">
    <g id="xtick_7">
     <g id="line2d_14">
      <g>
       <use xlink:href="#mc439252ebd" x="409.396364" y="326.32" style="stroke: #000000; stroke-width: 0.8"/>
      </g>
     </g>
     <g id="text_15">
      <!-- 200 -->
      <g transform="translate(401.896364 340.195) scale(0.1 -0.1)">
       <use xlink:href="#SimHei-32"/>
       <use xlink:href="#SimHei-30" x="50"/>
       <use xlink:href="#SimHei-30" x="100"/>
      </g>
     </g>
    </g>
    <g id="xtick_8">
     <g id="line2d_15">
      <g>
       <use xlink:href="#mc439252ebd" x="467.078641" y="326.32" style="stroke: #000000; stroke-width: 0.8"/>
      </g>
     </g>
     <g id="text_16">
      <!-- 220 -->
      <g transform="translate(459.578641 340.195) scale(0.1 -0.1)">
       <use xlink:href="#SimHei-32"/>
       <use xlink:href="#SimHei-32" x="50"/>
       <use xlink:href="#SimHei-30" x="100"/>
      </g>
     </g>
    </g>
    <g id="xtick_9">
     <g id="line2d_16">
      <g>
       <use xlink:href="#mc439252ebd" x="524.760918" y="326.32" style="stroke: #000000; stroke-width: 0.8"/>
      </g>
     </g>
     <g id="text_17">
      <!-- 240 -->
      <g transform="translate(517.260918 340.195) scale(0.1 -0.1)">
       <use xlink:href="#SimHei-32"/>
       <use xlink:href="#SimHei-34" x="50"/>
       <use xlink:href="#SimHei-30" x="100"/>
      </g>
     </g>
    </g>
    <g id="xtick_10">
     <g id="line2d_17">
      <g>
       <use xlink:href="#mc439252ebd" x="582.443196" y="326.32" style="stroke: #000000; stroke-width: 0.8"/>
      </g>
     </g>
     <g id="text_18">
      <!-- 260 -->
      <g transform="translate(574.943196 340.195) scale(0.1 -0.1)">
       <use xlink:href="#SimHei-32"/>
       <use xlink:href="#SimHei-36" x="50"/>
       <use xlink:href="#SimHei-30" x="100"/>
      </g>
     </g>
    </g>
    <g id="xtick_11">
     <g id="line2d_18">
      <g>
       <use xlink:href="#mc439252ebd" x="640.125473" y="326.32" style="stroke: #000000; stroke-width: 0.8"/>
      </g>
     </g>
     <g id="text_19">
      <!-- 280 -->
      <g transform="translate(632.625473 340.195) scale(0.1 -0.1)">
       <use xlink:href="#SimHei-32"/>
       <use xlink:href="#SimHei-38" x="50"/>
       <use xlink:href="#SimHei-30" x="100"/>
      </g>
     </g>
    </g>
    <g id="xtick_12">
     <g id="line2d_19">
      <g>
       <use xlink:href="#mc439252ebd" x="697.80775" y="326.32" style="stroke: #000000; stroke-width: 0.8"/>
      </g>
     </g>
     <g id="text_20">
      <!-- 300 -->
      <g transform="translate(690.30775 340.195) scale(0.1 -0.1)">
       <use xlink:href="#SimHei-33"/>
       <use xlink:href="#SimHei-30" x="50"/>
       <use xlink:href="#SimHei-30" x="100"/>
      </g>
     </g>
    </g>
    <g id="text_21">
     <!-- Preference -->
     <g transform="translate(527.16 352.32) scale(0.1 -0.1)">
      <use xlink:href="#SimHei-50"/>
      <use xlink:href="#SimHei-72" x="50"/>
      <use xlink:href="#SimHei-65" x="100"/>
      <use xlink:href="#SimHei-66" x="150"/>
      <use xlink:href="#SimHei-65" x="200"/>
      <use xlink:href="#SimHei-72" x="250"/>
      <use xlink:href="#SimHei-65" x="300"/>
      <use xlink:href="#SimHei-6e" x="350"/>
      <use xlink:href="#SimHei-63" x="400"/>
      <use xlink:href="#SimHei-65" x="450"/>
     </g>
    </g>
   </g>
   <g id="matplotlib.axis_4">
    <g id="ytick_6">
     <g id="line2d_20">
      <g>
       <use xlink:href="#m0a31269fa7" x="395.12" y="287.035889" style="stroke: #000000; stroke-width: 0.8"/>
      </g>
     </g>
     <g id="text_22">
      <!-- 15 -->
      <g transform="translate(378.12 290.473389) scale(0.1 -0.1)">
       <use xlink:href="#SimHei-31"/>
       <use xlink:href="#SimHei-35" x="50"/>
      </g>
     </g>
    </g>
    <g id="ytick_7">
     <g id="line2d_21">
      <g>
       <use xlink:href="#m0a31269fa7" x="395.12" y="224.680158" style="stroke: #000000; stroke-width: 0.8"/>
      </g>
     </g>
     <g id="text_23">
      <!-- 20 -->
      <g transform="translate(378.12 228.117658) scale(0.1 -0.1)">
       <use xlink:href="#SimHei-32"/>
       <use xlink:href="#SimHei-30" x="50"/>
      </g>
     </g>
    </g>
    <g id="ytick_8">
     <g id="line2d_22">
      <g>
       <use xlink:href="#m0a31269fa7" x="395.12" y="162.324427" style="stroke: #000000; stroke-width: 0.8"/>
      </g>
     </g>
     <g id="text_24">
      <!-- 25 -->
      <g transform="translate(378.12 165.761927) scale(0.1 -0.1)">
       <use xlink:href="#SimHei-32"/>
       <use xlink:href="#SimHei-35" x="50"/>
      </g>
     </g>
    </g>
    <g id="ytick_9">
     <g id="line2d_23">
      <g>
       <use xlink:href="#m0a31269fa7" x="395.12" y="99.968696" style="stroke: #000000; stroke-width: 0.8"/>
      </g>
     </g>
     <g id="text_25">
      <!-- 30 -->
      <g transform="translate(378.12 103.406196) scale(0.1 -0.1)">
       <use xlink:href="#SimHei-33"/>
       <use xlink:href="#SimHei-30" x="50"/>
      </g>
     </g>
    </g>
    <g id="ytick_10">
     <g id="line2d_24">
      <g>
       <use xlink:href="#m0a31269fa7" x="395.12" y="37.612964" style="stroke: #000000; stroke-width: 0.8"/>
      </g>
     </g>
     <g id="text_26">
      <!-- 35 -->
      <g transform="translate(378.12 41.050464) scale(0.1 -0.1)">
       <use xlink:href="#SimHei-33"/>
       <use xlink:href="#SimHei-35" x="50"/>
      </g>
     </g>
    </g>
    <g id="text_27">
     <!-- Number of clusters -->
     <g transform="translate(372.87 213.56) rotate(-90) scale(0.1 -0.1)">
      <use xlink:href="#SimHei-4e"/>
      <use xlink:href="#SimHei-75" x="50"/>
      <use xlink:href="#SimHei-6d" x="100"/>
      <use xlink:href="#SimHei-62" x="150"/>
      <use xlink:href="#SimHei-65" x="200"/>
      <use xlink:href="#SimHei-72" x="250"/>
      <use xlink:href="#SimHei-20" x="300"/>
      <use xlink:href="#SimHei-6f" x="350"/>
      <use xlink:href="#SimHei-66" x="400"/>
      <use xlink:href="#SimHei-20" x="450"/>
      <use xlink:href="#SimHei-63" x="500"/>
      <use xlink:href="#SimHei-6c" x="550"/>
      <use xlink:href="#SimHei-75" x="600"/>
      <use xlink:href="#SimHei-73" x="650"/>
      <use xlink:href="#SimHei-74" x="700"/>
      <use xlink:href="#SimHei-65" x="750"/>
      <use xlink:href="#SimHei-72" x="800"/>
      <use xlink:href="#SimHei-73" x="850"/>
     </g>
    </g>
   </g>
   <g id="line2d_25">
    <path d="M 409.396364 25.141818 
L 412.280478 50.084111 
L 415.164591 50.084111 
L 418.048705 62.555257 
L 420.932819 62.555257 
L 423.816933 62.555257 
L 426.701047 62.555257 
L 429.585161 62.555257 
L 432.469275 75.026403 
L 435.353388 87.497549 
L 438.237502 87.497549 
L 441.121616 99.968696 
L 444.00573 99.968696 
L 446.889844 99.968696 
L 449.773958 112.439842 
L 452.658072 112.439842 
L 455.542185 112.439842 
L 458.426299 112.439842 
L 461.310413 112.439842 
L 464.194527 112.439842 
L 467.078641 137.382134 
L 469.962755 149.853281 
L 472.846869 149.853281 
L 475.730983 149.853281 
L 478.615096 149.853281 
L 481.49921 149.853281 
L 484.383324 149.853281 
L 487.267438 149.853281 
L 490.151552 149.853281 
L 493.035666 149.853281 
L 495.91978 149.853281 
L 498.803893 149.853281 
L 501.688007 149.853281 
L 504.572121 149.853281 
L 507.456235 149.853281 
L 510.340349 162.324427 
L 513.224463 174.795573 
L 516.108577 174.795573 
L 518.992691 174.795573 
L 521.876804 174.795573 
L 524.760918 174.795573 
L 527.645032 174.795573 
L 530.529146 174.795573 
L 533.41326 174.795573 
L 536.297374 199.737866 
L 539.181488 212.209012 
L 542.065601 224.680158 
L 544.949715 224.680158 
L 547.833829 224.680158 
L 550.717943 224.680158 
L 553.602057 212.209012 
L 556.486171 249.622451 
L 559.370285 249.622451 
L 562.254399 249.622451 
L 565.138512 249.622451 
L 568.022626 249.622451 
L 570.90674 262.093597 
L 573.790854 274.564743 
L 576.674968 262.093597 
L 579.559082 262.093597 
L 582.443196 262.093597 
L 585.327309 262.093597 
L 588.211423 274.564743 
L 591.095537 262.093597 
L 593.979651 262.093597 
L 596.863765 274.564743 
L 599.747879 274.564743 
L 602.631993 274.564743 
L 605.516107 274.564743 
L 608.40022 274.564743 
L 611.284334 287.035889 
L 614.168448 287.035889 
L 617.052562 287.035889 
L 619.936676 287.035889 
L 622.82079 287.035889 
L 625.704904 287.035889 
L 628.589017 287.035889 
L 631.473131 287.035889 
L 634.357245 299.507036 
L 637.241359 287.035889 
L 640.125473 299.507036 
L 643.009587 287.035889 
L 645.893701 311.978182 
L 648.777815 311.978182 
L 651.661928 311.978182 
L 654.546042 311.978182 
L 657.430156 311.978182 
L 660.31427 311.978182 
L 663.198384 311.978182 
L 666.082498 311.978182 
L 668.966612 311.978182 
L 671.850725 311.978182 
L 674.734839 311.978182 
L 677.618953 311.978182 
L 680.503067 311.978182 
L 683.387181 311.978182 
L 686.271295 311.978182 
L 689.155409 311.978182 
L 692.039522 311.978182 
L 694.923636 311.978182 
" clip-path="url(#p8ebdaa944d)" style="fill: none; stroke: #e1cd6d; stroke-width: 1.5; stroke-linecap: square"/>
   </g>
   <g id="patch_9">
    <path d="M 395.12 326.32 
L 395.12 10.8 
" style="fill: none; stroke: #000000; stroke-width: 0.8; stroke-linejoin: miter; stroke-linecap: square"/>
   </g>
   <g id="patch_10">
    <path d="M 709.2 326.32 
L 709.2 10.8 
" style="fill: none; stroke: #000000; stroke-width: 0.8; stroke-linejoin: miter; stroke-linecap: square"/>
   </g>
   <g id="patch_11">
    <path d="M 395.12 326.32 
L 709.2 326.32 
" style="fill: none; stroke: #000000; stroke-width: 0.8; stroke-linejoin: miter; stroke-linecap: square"/>
   </g>
   <g id="patch_12">
    <path d="M 395.12 10.8 
L 709.2 10.8 
" style="fill: none; stroke: #000000; stroke-width: 0.8; stroke-linejoin: miter; stroke-linecap: square"/>
   </g>
   <g id="legend_2">
    <g id="patch_13">
     <path d="M 615.2 32.05 
L 702.2 32.05 
Q 704.2 32.05 704.2 30.05 
L 704.2 17.8 
Q 704.2 15.8 702.2 15.8 
L 615.2 15.8 
Q 613.2 15.8 613.2 17.8 
L 613.2 30.05 
Q 613.2 32.05 615.2 32.05 
z
" style="fill: #ffffff; opacity: 0.8; stroke: #cccccc; stroke-linejoin: miter"/>
    </g>
    <g id="line2d_26">
     <path d="M 617.2 23.3 
L 627.2 23.3 
L 637.2 23.3 
" style="fill: none; stroke: #e1cd6d; stroke-width: 1.5; stroke-linecap: square"/>
    </g>
    <g id="text_28">
     <!-- Damping:0.7 -->
     <g transform="translate(645.2 26.8) scale(0.1 -0.1)">
      <defs>
       <path id="SimHei-37" d="M 850 150 
Q 1300 2050 2425 3925 
L 275 3925 
L 275 4375 
L 2950 4375 
L 2950 3950 
Q 1775 2050 1400 150 
L 850 150 
z
" transform="scale(0.015625)"/>
      </defs>
      <use xlink:href="#SimHei-44"/>
      <use xlink:href="#SimHei-61" x="50"/>
      <use xlink:href="#SimHei-6d" x="100"/>
      <use xlink:href="#SimHei-70" x="150"/>
      <use xlink:href="#SimHei-69" x="200"/>
      <use xlink:href="#SimHei-6e" x="250"/>
      <use xlink:href="#SimHei-67" x="300"/>
      <use xlink:href="#SimHei-3a" x="350"/>
      <use xlink:href="#SimHei-30" x="400"/>
      <use xlink:href="#SimHei-2e" x="450"/>
      <use xlink:href="#SimHei-37" x="500"/>
     </g>
    </g>
   </g>
  </g>
  <g id="axes_3">
   <g id="patch_14">
    <path d="M 40.52 680.92 
L 354.6 680.92 
L 354.6 365.4 
L 40.52 365.4 
z
" style="fill: #ffffff"/>
   </g>
   <g id="matplotlib.axis_5">
    <g id="xtick_13">
     <g id="line2d_27">
      <g>
       <use xlink:href="#mc439252ebd" x="54.796364" y="680.92" style="stroke: #000000; stroke-width: 0.8"/>
      </g>
     </g>
     <g id="text_29">
      <!-- 200 -->
      <g transform="translate(47.296364 694.795) scale(0.1 -0.1)">
       <use xlink:href="#SimHei-32"/>
       <use xlink:href="#SimHei-30" x="50"/>
       <use xlink:href="#SimHei-30" x="100"/>
      </g>
     </g>
    </g>
    <g id="xtick_14">
     <g id="line2d_28">
      <g>
       <use xlink:href="#mc439252ebd" x="112.478641" y="680.92" style="stroke: #000000; stroke-width: 0.8"/>
      </g>
     </g>
     <g id="text_30">
      <!-- 220 -->
      <g transform="translate(104.978641 694.795) scale(0.1 -0.1)">
       <use xlink:href="#SimHei-32"/>
       <use xlink:href="#SimHei-32" x="50"/>
       <use xlink:href="#SimHei-30" x="100"/>
      </g>
     </g>
    </g>
    <g id="xtick_15">
     <g id="line2d_29">
      <g>
       <use xlink:href="#mc439252ebd" x="170.160918" y="680.92" style="stroke: #000000; stroke-width: 0.8"/>
      </g>
     </g>
     <g id="text_31">
      <!-- 240 -->
      <g transform="translate(162.660918 694.795) scale(0.1 -0.1)">
       <use xlink:href="#SimHei-32"/>
       <use xlink:href="#SimHei-34" x="50"/>
       <use xlink:href="#SimHei-30" x="100"/>
      </g>
     </g>
    </g>
    <g id="xtick_16">
     <g id="line2d_30">
      <g>
       <use xlink:href="#mc439252ebd" x="227.843196" y="680.92" style="stroke: #000000; stroke-width: 0.8"/>
      </g>
     </g>
     <g id="text_32">
      <!-- 260 -->
      <g transform="translate(220.343196 694.795) scale(0.1 -0.1)">
       <use xlink:href="#SimHei-32"/>
       <use xlink:href="#SimHei-36" x="50"/>
       <use xlink:href="#SimHei-30" x="100"/>
      </g>
     </g>
    </g>
    <g id="xtick_17">
     <g id="line2d_31">
      <g>
       <use xlink:href="#mc439252ebd" x="285.525473" y="680.92" style="stroke: #000000; stroke-width: 0.8"/>
      </g>
     </g>
     <g id="text_33">
      <!-- 280 -->
      <g transform="translate(278.025473 694.795) scale(0.1 -0.1)">
       <use xlink:href="#SimHei-32"/>
       <use xlink:href="#SimHei-38" x="50"/>
       <use xlink:href="#SimHei-30" x="100"/>
      </g>
     </g>
    </g>
    <g id="xtick_18">
     <g id="line2d_32">
      <g>
       <use xlink:href="#mc439252ebd" x="343.20775" y="680.92" style="stroke: #000000; stroke-width: 0.8"/>
      </g>
     </g>
     <g id="text_34">
      <!-- 300 -->
      <g transform="translate(335.70775 694.795) scale(0.1 -0.1)">
       <use xlink:href="#SimHei-33"/>
       <use xlink:href="#SimHei-30" x="50"/>
       <use xlink:href="#SimHei-30" x="100"/>
      </g>
     </g>
    </g>
    <g id="text_35">
     <!-- Preference -->
     <g transform="translate(172.56 706.92) scale(0.1 -0.1)">
      <use xlink:href="#SimHei-50"/>
      <use xlink:href="#SimHei-72" x="50"/>
      <use xlink:href="#SimHei-65" x="100"/>
      <use xlink:href="#SimHei-66" x="150"/>
      <use xlink:href="#SimHei-65" x="200"/>
      <use xlink:href="#SimHei-72" x="250"/>
      <use xlink:href="#SimHei-65" x="300"/>
      <use xlink:href="#SimHei-6e" x="350"/>
      <use xlink:href="#SimHei-63" x="400"/>
      <use xlink:href="#SimHei-65" x="450"/>
     </g>
    </g>
   </g>
   <g id="matplotlib.axis_6">
    <g id="ytick_11">
     <g id="line2d_33">
      <g>
       <use xlink:href="#m0a31269fa7" x="40.52" y="640.502149" style="stroke: #000000; stroke-width: 0.8"/>
      </g>
     </g>
     <g id="text_36">
      <!-- 15 -->
      <g transform="translate(23.52 643.939649) scale(0.1 -0.1)">
       <use xlink:href="#SimHei-31"/>
       <use xlink:href="#SimHei-35" x="50"/>
      </g>
     </g>
    </g>
    <g id="ytick_12">
     <g id="line2d_34">
      <g>
       <use xlink:href="#m0a31269fa7" x="40.52" y="575.312066" style="stroke: #000000; stroke-width: 0.8"/>
      </g>
     </g>
     <g id="text_37">
      <!-- 20 -->
      <g transform="translate(23.52 578.749566) scale(0.1 -0.1)">
       <use xlink:href="#SimHei-32"/>
       <use xlink:href="#SimHei-30" x="50"/>
      </g>
     </g>
    </g>
    <g id="ytick_13">
     <g id="line2d_35">
      <g>
       <use xlink:href="#m0a31269fa7" x="40.52" y="510.121983" style="stroke: #000000; stroke-width: 0.8"/>
      </g>
     </g>
     <g id="text_38">
      <!-- 25 -->
      <g transform="translate(23.52 513.559483) scale(0.1 -0.1)">
       <use xlink:href="#SimHei-32"/>
       <use xlink:href="#SimHei-35" x="50"/>
      </g>
     </g>
    </g>
    <g id="ytick_14">
     <g id="line2d_36">
      <g>
       <use xlink:href="#m0a31269fa7" x="40.52" y="444.931901" style="stroke: #000000; stroke-width: 0.8"/>
      </g>
     </g>
     <g id="text_39">
      <!-- 30 -->
      <g transform="translate(23.52 448.369401) scale(0.1 -0.1)">
       <use xlink:href="#SimHei-33"/>
       <use xlink:href="#SimHei-30" x="50"/>
      </g>
     </g>
    </g>
    <g id="ytick_15">
     <g id="line2d_37">
      <g>
       <use xlink:href="#m0a31269fa7" x="40.52" y="379.741818" style="stroke: #000000; stroke-width: 0.8"/>
      </g>
     </g>
     <g id="text_40">
      <!-- 35 -->
      <g transform="translate(23.52 383.179318) scale(0.1 -0.1)">
       <use xlink:href="#SimHei-33"/>
       <use xlink:href="#SimHei-35" x="50"/>
      </g>
     </g>
    </g>
    <g id="text_41">
     <!-- Number of clusters -->
     <g transform="translate(18.27 568.16) rotate(-90) scale(0.1 -0.1)">
      <use xlink:href="#SimHei-4e"/>
      <use xlink:href="#SimHei-75" x="50"/>
      <use xlink:href="#SimHei-6d" x="100"/>
      <use xlink:href="#SimHei-62" x="150"/>
      <use xlink:href="#SimHei-65" x="200"/>
      <use xlink:href="#SimHei-72" x="250"/>
      <use xlink:href="#SimHei-20" x="300"/>
      <use xlink:href="#SimHei-6f" x="350"/>
      <use xlink:href="#SimHei-66" x="400"/>
      <use xlink:href="#SimHei-20" x="450"/>
      <use xlink:href="#SimHei-63" x="500"/>
      <use xlink:href="#SimHei-6c" x="550"/>
      <use xlink:href="#SimHei-75" x="600"/>
      <use xlink:href="#SimHei-73" x="650"/>
      <use xlink:href="#SimHei-74" x="700"/>
      <use xlink:href="#SimHei-65" x="750"/>
      <use xlink:href="#SimHei-72" x="800"/>
      <use xlink:href="#SimHei-73" x="850"/>
     </g>
    </g>
   </g>
   <g id="line2d_38">
    <path d="M 54.796364 379.741818 
L 57.680478 405.817851 
L 60.564591 405.817851 
L 63.448705 405.817851 
L 66.332819 405.817851 
L 69.216933 405.817851 
L 72.101047 405.817851 
L 74.985161 392.779835 
L 77.869275 418.855868 
L 80.753388 431.893884 
L 83.637502 431.893884 
L 86.521616 444.931901 
L 89.40573 444.931901 
L 92.289844 444.931901 
L 95.173958 457.969917 
L 98.058072 457.969917 
L 100.942185 457.969917 
L 103.826299 457.969917 
L 106.710413 457.969917 
L 109.594527 457.969917 
L 112.478641 484.04595 
L 115.362755 497.083967 
L 118.246869 497.083967 
L 121.130983 497.083967 
L 124.015096 497.083967 
L 126.89921 497.083967 
L 129.783324 497.083967 
L 132.667438 497.083967 
L 135.551552 497.083967 
L 138.435666 497.083967 
L 141.31978 497.083967 
L 144.203893 497.083967 
L 147.088007 497.083967 
L 149.972121 497.083967 
L 152.856235 497.083967 
L 155.740349 510.121983 
L 158.624463 523.16 
L 161.508577 523.16 
L 164.392691 523.16 
L 167.276804 523.16 
L 170.160918 523.16 
L 173.045032 523.16 
L 175.929146 523.16 
L 178.81326 523.16 
L 181.697374 549.236033 
L 184.581488 562.27405 
L 187.465601 575.312066 
L 190.349715 575.312066 
L 193.233829 575.312066 
L 196.117943 575.312066 
L 199.002057 575.312066 
L 201.886171 588.350083 
L 204.770285 601.388099 
L 207.654399 601.388099 
L 210.538512 614.426116 
L 213.422626 614.426116 
L 216.30674 614.426116 
L 219.190854 614.426116 
L 222.074968 614.426116 
L 224.959082 627.464132 
L 227.843196 614.426116 
L 230.727309 614.426116 
L 233.611423 614.426116 
L 236.495537 614.426116 
L 239.379651 614.426116 
L 242.263765 627.464132 
L 245.147879 627.464132 
L 248.031993 627.464132 
L 250.916107 627.464132 
L 253.80022 640.502149 
L 256.684334 640.502149 
L 259.568448 640.502149 
L 262.452562 640.502149 
L 265.336676 640.502149 
L 268.22079 640.502149 
L 271.104904 640.502149 
L 273.989017 640.502149 
L 276.873131 640.502149 
L 279.757245 653.540165 
L 282.641359 640.502149 
L 285.525473 666.578182 
L 288.409587 653.540165 
L 291.293701 666.578182 
L 294.177815 666.578182 
L 297.061928 666.578182 
L 299.946042 666.578182 
L 302.830156 666.578182 
L 305.71427 666.578182 
L 308.598384 666.578182 
L 311.482498 666.578182 
L 314.366612 666.578182 
L 317.250725 666.578182 
L 320.134839 666.578182 
L 323.018953 666.578182 
L 325.903067 666.578182 
L 328.787181 666.578182 
L 331.671295 666.578182 
L 334.555409 666.578182 
L 337.439522 666.578182 
L 340.323636 666.578182 
" clip-path="url(#pab1c8e0807)" style="fill: none; stroke: #56a2b5; stroke-width: 1.5; stroke-linecap: square"/>
   </g>
   <g id="patch_15">
    <path d="M 40.52 680.92 
L 40.52 365.4 
" style="fill: none; stroke: #000000; stroke-width: 0.8; stroke-linejoin: miter; stroke-linecap: square"/>
   </g>
   <g id="patch_16">
    <path d="M 354.6 680.92 
L 354.6 365.4 
" style="fill: none; stroke: #000000; stroke-width: 0.8; stroke-linejoin: miter; stroke-linecap: square"/>
   </g>
   <g id="patch_17">
    <path d="M 40.52 680.92 
L 354.6 680.92 
" style="fill: none; stroke: #000000; stroke-width: 0.8; stroke-linejoin: miter; stroke-linecap: square"/>
   </g>
   <g id="patch_18">
    <path d="M 40.52 365.4 
L 354.6 365.4 
" style="fill: none; stroke: #000000; stroke-width: 0.8; stroke-linejoin: miter; stroke-linecap: square"/>
   </g>
   <g id="legend_3">
    <g id="patch_19">
     <path d="M 260.6 386.65 
L 347.6 386.65 
Q 349.6 386.65 349.6 384.65 
L 349.6 372.4 
Q 349.6 370.4 347.6 370.4 
L 260.6 370.4 
Q 258.6 370.4 258.6 372.4 
L 258.6 384.65 
Q 258.6 386.65 260.6 386.65 
z
" style="fill: #ffffff; opacity: 0.8; stroke: #cccccc; stroke-linejoin: miter"/>
    </g>
    <g id="line2d_39">
     <path d="M 262.6 377.9 
L 272.6 377.9 
L 282.6 377.9 
" style="fill: none; stroke: #56a2b5; stroke-width: 1.5; stroke-linecap: square"/>
    </g>
    <g id="text_42">
     <!-- Damping:0.8 -->
     <g transform="translate(290.6 381.4) scale(0.1 -0.1)">
      <use xlink:href="#SimHei-44"/>
      <use xlink:href="#SimHei-61" x="50"/>
      <use xlink:href="#SimHei-6d" x="100"/>
      <use xlink:href="#SimHei-70" x="150"/>
      <use xlink:href="#SimHei-69" x="200"/>
      <use xlink:href="#SimHei-6e" x="250"/>
      <use xlink:href="#SimHei-67" x="300"/>
      <use xlink:href="#SimHei-3a" x="350"/>
      <use xlink:href="#SimHei-30" x="400"/>
      <use xlink:href="#SimHei-2e" x="450"/>
      <use xlink:href="#SimHei-38" x="500"/>
     </g>
    </g>
   </g>
  </g>
  <g id="axes_4">
   <g id="patch_20">
    <path d="M 395.12 680.92 
L 709.2 680.92 
L 709.2 365.4 
L 395.12 365.4 
z
" style="fill: #ffffff"/>
   </g>
   <g id="matplotlib.axis_7">
    <g id="xtick_19">
     <g id="line2d_40">
      <g>
       <use xlink:href="#mc439252ebd" x="409.396364" y="680.92" style="stroke: #000000; stroke-width: 0.8"/>
      </g>
     </g>
     <g id="text_43">
      <!-- 200 -->
      <g transform="translate(401.896364 694.795) scale(0.1 -0.1)">
       <use xlink:href="#SimHei-32"/>
       <use xlink:href="#SimHei-30" x="50"/>
       <use xlink:href="#SimHei-30" x="100"/>
      </g>
     </g>
    </g>
    <g id="xtick_20">
     <g id="line2d_41">
      <g>
       <use xlink:href="#mc439252ebd" x="467.078641" y="680.92" style="stroke: #000000; stroke-width: 0.8"/>
      </g>
     </g>
     <g id="text_44">
      <!-- 220 -->
      <g transform="translate(459.578641 694.795) scale(0.1 -0.1)">
       <use xlink:href="#SimHei-32"/>
       <use xlink:href="#SimHei-32" x="50"/>
       <use xlink:href="#SimHei-30" x="100"/>
      </g>
     </g>
    </g>
    <g id="xtick_21">
     <g id="line2d_42">
      <g>
       <use xlink:href="#mc439252ebd" x="524.760918" y="680.92" style="stroke: #000000; stroke-width: 0.8"/>
      </g>
     </g>
     <g id="text_45">
      <!-- 240 -->
      <g transform="translate(517.260918 694.795) scale(0.1 -0.1)">
       <use xlink:href="#SimHei-32"/>
       <use xlink:href="#SimHei-34" x="50"/>
       <use xlink:href="#SimHei-30" x="100"/>
      </g>
     </g>
    </g>
    <g id="xtick_22">
     <g id="line2d_43">
      <g>
       <use xlink:href="#mc439252ebd" x="582.443196" y="680.92" style="stroke: #000000; stroke-width: 0.8"/>
      </g>
     </g>
     <g id="text_46">
      <!-- 260 -->
      <g transform="translate(574.943196 694.795) scale(0.1 -0.1)">
       <use xlink:href="#SimHei-32"/>
       <use xlink:href="#SimHei-36" x="50"/>
       <use xlink:href="#SimHei-30" x="100"/>
      </g>
     </g>
    </g>
    <g id="xtick_23">
     <g id="line2d_44">
      <g>
       <use xlink:href="#mc439252ebd" x="640.125473" y="680.92" style="stroke: #000000; stroke-width: 0.8"/>
      </g>
     </g>
     <g id="text_47">
      <!-- 280 -->
      <g transform="translate(632.625473 694.795) scale(0.1 -0.1)">
       <use xlink:href="#SimHei-32"/>
       <use xlink:href="#SimHei-38" x="50"/>
       <use xlink:href="#SimHei-30" x="100"/>
      </g>
     </g>
    </g>
    <g id="xtick_24">
     <g id="line2d_45">
      <g>
       <use xlink:href="#mc439252ebd" x="697.80775" y="680.92" style="stroke: #000000; stroke-width: 0.8"/>
      </g>
     </g>
     <g id="text_48">
      <!-- 300 -->
      <g transform="translate(690.30775 694.795) scale(0.1 -0.1)">
       <use xlink:href="#SimHei-33"/>
       <use xlink:href="#SimHei-30" x="50"/>
       <use xlink:href="#SimHei-30" x="100"/>
      </g>
     </g>
    </g>
    <g id="text_49">
     <!-- Preference -->
     <g transform="translate(527.16 706.92) scale(0.1 -0.1)">
      <use xlink:href="#SimHei-50"/>
      <use xlink:href="#SimHei-72" x="50"/>
      <use xlink:href="#SimHei-65" x="100"/>
      <use xlink:href="#SimHei-66" x="150"/>
      <use xlink:href="#SimHei-65" x="200"/>
      <use xlink:href="#SimHei-72" x="250"/>
      <use xlink:href="#SimHei-65" x="300"/>
      <use xlink:href="#SimHei-6e" x="350"/>
      <use xlink:href="#SimHei-63" x="400"/>
      <use xlink:href="#SimHei-65" x="450"/>
     </g>
    </g>
   </g>
   <g id="matplotlib.axis_8">
    <g id="ytick_16">
     <g id="line2d_46">
      <g>
       <use xlink:href="#m0a31269fa7" x="395.12" y="656.687273" style="stroke: #000000; stroke-width: 0.8"/>
      </g>
     </g>
     <g id="text_50">
      <!-- 5 -->
      <g transform="translate(383.12 660.124773) scale(0.1 -0.1)">
       <use xlink:href="#SimHei-35"/>
      </g>
     </g>
    </g>
    <g id="ytick_17">
     <g id="line2d_47">
      <g>
       <use xlink:href="#m0a31269fa7" x="395.12" y="607.232727" style="stroke: #000000; stroke-width: 0.8"/>
      </g>
     </g>
     <g id="text_51">
      <!-- 10 -->
      <g transform="translate(378.12 610.670227) scale(0.1 -0.1)">
       <use xlink:href="#SimHei-31"/>
       <use xlink:href="#SimHei-30" x="50"/>
      </g>
     </g>
    </g>
    <g id="ytick_18">
     <g id="line2d_48">
      <g>
       <use xlink:href="#m0a31269fa7" x="395.12" y="557.778182" style="stroke: #000000; stroke-width: 0.8"/>
      </g>
     </g>
     <g id="text_52">
      <!-- 15 -->
      <g transform="translate(378.12 561.215682) scale(0.1 -0.1)">
       <use xlink:href="#SimHei-31"/>
       <use xlink:href="#SimHei-35" x="50"/>
      </g>
     </g>
    </g>
    <g id="ytick_19">
     <g id="line2d_49">
      <g>
       <use xlink:href="#m0a31269fa7" x="395.12" y="508.323636" style="stroke: #000000; stroke-width: 0.8"/>
      </g>
     </g>
     <g id="text_53">
      <!-- 20 -->
      <g transform="translate(378.12 511.761136) scale(0.1 -0.1)">
       <use xlink:href="#SimHei-32"/>
       <use xlink:href="#SimHei-30" x="50"/>
      </g>
     </g>
    </g>
    <g id="ytick_20">
     <g id="line2d_50">
      <g>
       <use xlink:href="#m0a31269fa7" x="395.12" y="458.869091" style="stroke: #000000; stroke-width: 0.8"/>
      </g>
     </g>
     <g id="text_54">
      <!-- 25 -->
      <g transform="translate(378.12 462.306591) scale(0.1 -0.1)">
       <use xlink:href="#SimHei-32"/>
       <use xlink:href="#SimHei-35" x="50"/>
      </g>
     </g>
    </g>
    <g id="ytick_21">
     <g id="line2d_51">
      <g>
       <use xlink:href="#m0a31269fa7" x="395.12" y="409.414545" style="stroke: #000000; stroke-width: 0.8"/>
      </g>
     </g>
     <g id="text_55">
      <!-- 30 -->
      <g transform="translate(378.12 412.852045) scale(0.1 -0.1)">
       <use xlink:href="#SimHei-33"/>
       <use xlink:href="#SimHei-30" x="50"/>
      </g>
     </g>
    </g>
    <g id="text_56">
     <!-- Number of clusters -->
     <g transform="translate(372.87 568.16) rotate(-90) scale(0.1 -0.1)">
      <use xlink:href="#SimHei-4e"/>
      <use xlink:href="#SimHei-75" x="50"/>
      <use xlink:href="#SimHei-6d" x="100"/>
      <use xlink:href="#SimHei-62" x="150"/>
      <use xlink:href="#SimHei-65" x="200"/>
      <use xlink:href="#SimHei-72" x="250"/>
      <use xlink:href="#SimHei-20" x="300"/>
      <use xlink:href="#SimHei-6f" x="350"/>
      <use xlink:href="#SimHei-66" x="400"/>
      <use xlink:href="#SimHei-20" x="450"/>
      <use xlink:href="#SimHei-63" x="500"/>
      <use xlink:href="#SimHei-6c" x="550"/>
      <use xlink:href="#SimHei-75" x="600"/>
      <use xlink:href="#SimHei-73" x="650"/>
      <use xlink:href="#SimHei-74" x="700"/>
      <use xlink:href="#SimHei-65" x="750"/>
      <use xlink:href="#SimHei-72" x="800"/>
      <use xlink:href="#SimHei-73" x="850"/>
     </g>
    </g>
   </g>
   <g id="line2d_52">
    <path d="M 409.396364 399.523636 
L 412.280478 409.414545 
L 415.164591 409.414545 
L 418.048705 419.305455 
L 420.932819 419.305455 
L 423.816933 429.196364 
L 426.701047 429.196364 
L 429.585161 429.196364 
L 432.469275 379.741818 
L 435.353388 389.632727 
L 438.237502 389.632727 
L 441.121616 419.305455 
L 444.00573 458.869091 
L 446.889844 458.869091 
L 449.773958 468.76 
L 452.658072 429.196364 
L 455.542185 429.196364 
L 458.426299 478.650909 
L 461.310413 478.650909 
L 464.194527 478.650909 
L 467.078641 439.087273 
L 469.962755 439.087273 
L 472.846869 448.978182 
L 475.730983 458.869091 
L 478.615096 458.869091 
L 481.49921 458.869091 
L 484.383324 458.869091 
L 487.267438 448.978182 
L 490.151552 448.978182 
L 493.035666 448.978182 
L 495.91978 448.978182 
L 498.803893 448.978182 
L 501.688007 448.978182 
L 504.572121 448.978182 
L 507.456235 488.541818 
L 510.340349 547.887273 
L 513.224463 547.887273 
L 516.108577 547.887273 
L 518.992691 498.432727 
L 521.876804 498.432727 
L 524.760918 468.76 
L 527.645032 468.76 
L 530.529146 468.76 
L 533.41326 468.76 
L 536.297374 498.432727 
L 539.181488 498.432727 
L 542.065601 508.323636 
L 544.949715 518.214545 
L 547.833829 518.214545 
L 550.717943 518.214545 
L 553.602057 518.214545 
L 556.486171 528.105455 
L 559.370285 537.996364 
L 562.254399 607.232727 
L 565.138512 607.232727 
L 568.022626 607.232727 
L 570.90674 607.232727 
L 573.790854 607.232727 
L 576.674968 607.232727 
L 579.559082 607.232727 
L 582.443196 607.232727 
L 585.327309 607.232727 
L 588.211423 607.232727 
L 591.095537 607.232727 
L 593.979651 607.232727 
L 596.863765 617.123636 
L 599.747879 557.778182 
L 602.631993 557.778182 
L 605.516107 557.778182 
L 608.40022 557.778182 
L 611.284334 557.778182 
L 614.168448 557.778182 
L 617.052562 557.778182 
L 619.936676 636.905455 
L 622.82079 636.905455 
L 625.704904 636.905455 
L 628.589017 636.905455 
L 631.473131 636.905455 
L 634.357245 656.687273 
L 637.241359 656.687273 
L 640.125473 656.687273 
L 643.009587 656.687273 
L 645.893701 656.687273 
L 648.777815 577.56 
L 651.661928 577.56 
L 654.546042 577.56 
L 657.430156 587.450909 
L 660.31427 587.450909 
L 663.198384 587.450909 
L 666.082498 597.341818 
L 668.966612 597.341818 
L 671.850725 597.341818 
L 674.734839 597.341818 
L 677.618953 597.341818 
L 680.503067 597.341818 
L 683.387181 597.341818 
L 686.271295 597.341818 
L 689.155409 597.341818 
L 692.039522 666.578182 
L 694.923636 666.578182 
" clip-path="url(#pfe7aff87e2)" style="fill: none; stroke: #5638f1; stroke-width: 1.5; stroke-linecap: square"/>
   </g>
   <g id="patch_21">
    <path d="M 395.12 680.92 
L 395.12 365.4 
" style="fill: none; stroke: #000000; stroke-width: 0.8; stroke-linejoin: miter; stroke-linecap: square"/>
   </g>
   <g id="patch_22">
    <path d="M 709.2 680.92 
L 709.2 365.4 
" style="fill: none; stroke: #000000; stroke-width: 0.8; stroke-linejoin: miter; stroke-linecap: square"/>
   </g>
   <g id="patch_23">
    <path d="M 395.12 680.92 
L 709.2 680.92 
" style="fill: none; stroke: #000000; stroke-width: 0.8; stroke-linejoin: miter; stroke-linecap: square"/>
   </g>
   <g id="patch_24">
    <path d="M 395.12 365.4 
L 709.2 365.4 
" style="fill: none; stroke: #000000; stroke-width: 0.8; stroke-linejoin: miter; stroke-linecap: square"/>
   </g>
   <g id="legend_4">
    <g id="patch_25">
     <path d="M 615.2 386.65 
L 702.2 386.65 
Q 704.2 386.65 704.2 384.65 
L 704.2 372.4 
Q 704.2 370.4 702.2 370.4 
L 615.2 370.4 
Q 613.2 370.4 613.2 372.4 
L 613.2 384.65 
Q 613.2 386.65 615.2 386.65 
z
" style="fill: #ffffff; opacity: 0.8; stroke: #cccccc; stroke-linejoin: miter"/>
    </g>
    <g id="line2d_53">
     <path d="M 617.2 377.9 
L 627.2 377.9 
L 637.2 377.9 
" style="fill: none; stroke: #5638f1; stroke-width: 1.5; stroke-linecap: square"/>
    </g>
    <g id="text_57">
     <!-- Damping:0.9 -->
     <g transform="translate(645.2 381.4) scale(0.1 -0.1)">
      <defs>
       <path id="SimHei-39" d="M 800 75 
Q 1350 1000 1700 1750 
Q 1075 1650 662 1912 
Q 250 2175 162 2625 
Q 75 3075 175 3437 
Q 275 3800 487 4037 
Q 700 4275 1000 4375 
Q 1300 4475 1537 4475 
Q 1775 4475 2025 4375 
Q 2275 4275 2475 4075 
Q 2675 3875 2750 3662 
Q 2825 3450 2825 3112 
Q 2825 2775 2575 2250 
Q 2325 1725 1350 75 
L 800 75 
z
M 662 2875 
Q 700 2550 937 2337 
Q 1175 2125 1450 2150 
Q 1725 2175 1887 2300 
Q 2050 2425 2200 2725 
Q 2300 3100 2250 3362 
Q 2200 3625 1987 3800 
Q 1775 3975 1525 3975 
Q 1375 4000 1137 3900 
Q 900 3800 762 3500 
Q 625 3200 662 2875 
z
" transform="scale(0.015625)"/>
      </defs>
      <use xlink:href="#SimHei-44"/>
      <use xlink:href="#SimHei-61" x="50"/>
      <use xlink:href="#SimHei-6d" x="100"/>
      <use xlink:href="#SimHei-70" x="150"/>
      <use xlink:href="#SimHei-69" x="200"/>
      <use xlink:href="#SimHei-6e" x="250"/>
      <use xlink:href="#SimHei-67" x="300"/>
      <use xlink:href="#SimHei-3a" x="350"/>
      <use xlink:href="#SimHei-30" x="400"/>
      <use xlink:href="#SimHei-2e" x="450"/>
      <use xlink:href="#SimHei-39" x="500"/>
     </g>
    </g>
   </g>
  </g>
 </g>
 <defs>
  <clipPath id="pe2101c0dee">
   <rect x="40.52" y="10.8" width="314.08" height="315.52"/>
  </clipPath>
  <clipPath id="p8ebdaa944d">
   <rect x="395.12" y="10.8" width="314.08" height="315.52"/>
  </clipPath>
  <clipPath id="pab1c8e0807">
   <rect x="40.52" y="365.4" width="314.08" height="315.52"/>
  </clipPath>
  <clipPath id="pfe7aff87e2">
   <rect x="395.12" y="365.4" width="314.08" height="315.52"/>
  </clipPath>
 </defs>
</svg>
